<?xml version="1.0" encoding="UTF-8" standalone="no"?>
<!DOCTYPE svg PUBLIC "//W3C//DTD SVG 1.1//EN" "http://www.w3.org/Graphics/SVG/1.1/DTD/svg11.dtd">
<svg version="1.1" xmlns="http://www.w3.org/2000/svg" xmlns:xlink="http://www.w3.org/1999/xlink" preserveAspectRatio="xMidYMid meet" viewBox="0 0 640 640" width="640" height="640"><defs><path d="M646.78 139.67L646.78 234.57L0 234.57L0 139.67L646.78 139.67Z" id="c5vXKMQIhy"></path><path d="M640 0L640 128L0 128L0 0L640 0Z" id="a44LS4m1i"></path><path d="M0 583.53L0 640L640 640L640 583.53L0 583.53Z" id="b1phfgcSbc"></path><path d="M646.78 249.9L646.78 336.33L0 336.33L0 249.9L646.78 249.9Z" id="a4eT2SW0Ce"></path><path d="M653.56 353.73L653.56 467.28L0 467.28L0 353.73L653.56 353.73Z" id="a1aBHPiRcC"></path><path d="M412.89 482.62L412.89 569.05L-6.43 569.05L-6.43 482.62L412.89 482.62Z" id="cSQIIePRx"></path><path d="M646.78 482.62L646.78 569.05L436.78 569.05L436.78 482.62L646.78 482.62Z" id="j4XlqiQoCU"></path><path d="M608.25 205.25L627.63 185.29L608.25 165.32L608.25 177.98L587.7 177.98L587.7 192.63L608.25 192.63L608.25 205.25Z" id="cpl5PqZwl"></path><path d="M34.09 165.32L14.71 185.29L34.09 205.25L34.09 192.6L54.65 192.6L54.65 177.95L34.09 177.95L34.09 165.32Z" id="eB94y0Fnd"></path><path d="M32.92 383.92L13.54 403.88L32.92 423.85L32.92 411.19L53.47 411.19L53.47 396.54L32.92 396.54L32.92 383.92Z" id="drOD5wE6E"></path><path d="M607.08 423.85L626.46 403.88L607.08 383.92L607.08 396.57L586.53 396.57L586.53 411.22L607.08 411.22L607.08 423.85Z" id="amYjP45R"></path><path d="M646.39 366.23L646.39 452.66L436.39 452.66L436.39 366.23L646.39 366.23Z" id="g1WifmqpYl"></path><path d="M411.49 366.23L411.49 452.66L-7.83 452.66L-7.83 366.23L411.49 366.23Z" id="beZEWqdW4"></path><path d="M607.08 430.47L626.46 410.51L607.08 390.54L607.08 403.2L586.53 403.2L586.53 417.85L607.08 417.85L607.08 430.47Z" id="aYPEYHzsi"></path><path d="M32.92 390.54L13.54 410.51L32.92 430.47L32.92 417.82L53.47 417.82L53.47 403.17L32.92 403.17L32.92 390.54Z" id="bleeZcudK"></path></defs><g><g><g><use xlink:href="#c5vXKMQIhy" opacity="1" fill="#d8dde7" fill-opacity="1"></use><g><use xlink:href="#c5vXKMQIhy" opacity="1" fill-opacity="0" stroke="#000000" stroke-width="1" stroke-opacity="0"></use></g></g><g><use xlink:href="#a44LS4m1i" opacity="1" fill="#d8dde7" fill-opacity="1"></use><g><use xlink:href="#a44LS4m1i" opacity="1" fill-opacity="0" stroke="#000000" stroke-width="1" stroke-opacity="0"></use></g></g><g><use xlink:href="#b1phfgcSbc" opacity="1" fill="#d8dde7" fill-opacity="1"></use><g><use xlink:href="#b1phfgcSbc" opacity="1" fill-opacity="0" stroke="#000000" stroke-width="1" stroke-opacity="0"></use></g></g><g><use xlink:href="#a4eT2SW0Ce" opacity="1" fill="#d8dde7" fill-opacity="1"></use><g><use xlink:href="#a4eT2SW0Ce" opacity="1" fill-opacity="0" stroke="#000000" stroke-width="1" stroke-opacity="0"></use></g></g><g><use xlink:href="#a1aBHPiRcC" opacity="1" fill="#d8dde7" fill-opacity="1"></use><g><use xlink:href="#a1aBHPiRcC" opacity="1" fill-opacity="0" stroke="#000000" stroke-width="1" stroke-opacity="0"></use></g></g><g><use xlink:href="#cSQIIePRx" opacity="1" fill="#d8dde7" fill-opacity="1"></use><g><use xlink:href="#cSQIIePRx" opacity="1" fill-opacity="0" stroke="#000000" stroke-width="1" stroke-opacity="0"></use></g></g><g><use xlink:href="#j4XlqiQoCU" opacity="1" fill="#d8dde7" fill-opacity="1"></use><g><use xlink:href="#j4XlqiQoCU" opacity="1" fill-opacity="0" stroke="#000000" stroke-width="1" stroke-opacity="0"></use></g></g><g><use xlink:href="#cpl5PqZwl" opacity="1" fill="#ffffff" fill-opacity="1"></use></g><g><use xlink:href="#eB94y0Fnd" opacity="1" fill="#ffffff" fill-opacity="1"></use></g><g><use xlink:href="#drOD5wE6E" opacity="1" fill="#ffffff" fill-opacity="1"></use></g><g><use xlink:href="#amYjP45R" opacity="1" fill="#ffffff" fill-opacity="1"></use></g><g><use xlink:href="#g1WifmqpYl" opacity="1" fill="#ffffff" fill-opacity="1"></use><g><use xlink:href="#g1WifmqpYl" opacity="1" fill-opacity="0" stroke="#000000" stroke-width="1" stroke-opacity="0"></use></g></g><g><use xlink:href="#beZEWqdW4" opacity="1" fill="#ffffff" fill-opacity="1"></use><g><use xlink:href="#beZEWqdW4" opacity="1" fill-opacity="0" stroke="#000000" stroke-width="1" stroke-opacity="0"></use></g></g><g><use xlink:href="#aYPEYHzsi" opacity="1" fill="#d8dde7" fill-opacity="1"></use></g><g><use xlink:href="#bleeZcudK" opacity="1" fill="#d8dde7" fill-opacity="1"></use></g></g></g></svg>