<?xml version="1.0" encoding="UTF-8" standalone="no"?>
<!DOCTYPE svg PUBLIC "//W3C//DTD SVG 1.1//EN" "http://www.w3.org/Graphics/SVG/1.1/DTD/svg11.dtd">
<svg version="1.1" xmlns="http://www.w3.org/2000/svg" xmlns:xlink="http://www.w3.org/1999/xlink" preserveAspectRatio="xMidYMid meet" viewBox="0 0 640 640" width="640" height="640">
    <defs>
        <path d="M646.78 139.67L646.78 221.86L0 221.86L0 139.67L646.78 139.67Z" id="caVzuyHH"></path>
        <path d="M640 0L640 128L0 128L0 0L640 0Z" id="a44LS4m1i"></path>
        <path d="M0 583.53L0 640L640 640L640 583.53L0 583.53Z" id="b1phfgcSbc"></path>
        <path d="M651.95 230.87L651.95 335.94L-1.61 335.94L-1.61 230.87L651.95 230.87Z" id="a8omvOpj7A"></path>
        <path d="M609.1 201.25L628.47 181.29L609.1 161.32L609.1 173.98L588.54 173.98L588.54 188.63L609.1 188.63L609.1 201.25Z" id="g5ClR0tRt8"></path>
        <path d="M34.09 161.32L14.71 181.29L34.09 201.25L34.09 188.6L54.65 188.6L54.65 173.95L34.09 173.95L34.09 161.32Z" id="f3A59eBstQ"></path>
        <path d="M31.31 261.05L11.93 281.02L31.31 300.98L31.31 288.33L51.86 288.33L51.86 273.68L31.31 273.68L31.31 261.05Z" id="a4GcN0IQn3"></path>
        <path d="M605.47 300.98L624.85 281.02L605.47 261.05L605.47 273.71L584.92 273.71L584.92 288.36L605.47 288.36L605.47 300.98Z" id="h444dRN6z"></path>
        <path d="M644.78 243.36L644.78 323.01L434.78 323.01L434.78 243.36L644.78 243.36Z" id="a20sbHp4Lr"></path>
        <path d="M409.88 243.36L409.88 323.01L-9.44 323.01L-9.44 243.36L409.88 243.36Z" id="jYtFkhgbZ"></path>
        <path d="M605.47 301.61L624.85 281.65L605.47 261.68L605.47 274.34L584.92 274.34L584.92 288.99L605.47 288.99L605.47 301.61Z" id="i3bbSnTMj4"></path>
        <path d="M31.31 261.68L11.93 281.65L31.31 301.61L31.31 288.95L51.86 288.95L51.86 274.3L31.31 274.3L31.31 261.68Z" id="daCWHykqk"></path>
        <path d="M646.78 343.92L646.78 410.86L0 410.86L0 343.92L646.78 343.92Z" id="c9JOz4Vjv"></path>
        <path d="M644.78 508.43L644.78 575.37L-2.01 575.37L-2.01 508.43L644.78 508.43Z" id="a290Uiw5o2"></path>
        <path d="M644.34 418.01L644.34 500.2L-2.44 500.2L-2.44 418.01L644.34 418.01Z" id="bPOCr0qD3"></path>
        <path d="M605.81 479.59L625.19 459.63L605.81 439.66L605.81 452.32L585.26 452.32L585.26 466.97L605.81 466.97L605.81 479.59Z" id="a1S2ZwWz81"></path>
        <path d="M31.66 439.66L12.28 459.63L31.66 479.59L31.66 466.94L52.21 466.94L52.21 452.29L31.66 452.29L31.66 439.66Z" id="aYX5R4c94"></path>
    </defs>
    <g>
        <g>
            <g>
                <use xlink:href="#caVzuyHH" opacity="1" fill="#d8dde7" fill-opacity="1"></use>
                <g>
                    <use xlink:href="#caVzuyHH" opacity="1" fill-opacity="0" stroke="#000000" stroke-width="1" stroke-opacity="0"></use>
                </g>
            </g>
            <g>
                <use xlink:href="#a44LS4m1i" opacity="1" fill="#d8dde7" fill-opacity="1"></use>
                <g>
                    <use xlink:href="#a44LS4m1i" opacity="1" fill-opacity="0" stroke="#000000" stroke-width="1" stroke-opacity="0"></use>
                </g>
            </g>
            <g>
                <use xlink:href="#b1phfgcSbc" opacity="1" fill="#d8dde7" fill-opacity="1"></use>
                <g>
                    <use xlink:href="#b1phfgcSbc" opacity="1" fill-opacity="0" stroke="#000000" stroke-width="1" stroke-opacity="0"></use>
                </g>
            </g>
            <g>
                <use xlink:href="#a8omvOpj7A" opacity="1" fill="#d8dde7" fill-opacity="1"></use>
                <g>
                    <use xlink:href="#a8omvOpj7A" opacity="1" fill-opacity="0" stroke="#000000" stroke-width="1" stroke-opacity="0"></use>
                </g>
            </g>
            <g>
                <use xlink:href="#g5ClR0tRt8" opacity="1" fill="#ffffff" fill-opacity="1"></use>
            </g>
            <g>
                <use xlink:href="#f3A59eBstQ" opacity="1" fill="#ffffff" fill-opacity="1"></use>
            </g>
            <g>
                <use xlink:href="#a4GcN0IQn3" opacity="1" fill="#ffffff" fill-opacity="1"></use>
            </g>
            <g>
                <use xlink:href="#h444dRN6z" opacity="1" fill="#ffffff" fill-opacity="1"></use>
            </g>
            <g>
                <use xlink:href="#a20sbHp4Lr" opacity="1" fill="#ffffff" fill-opacity="1"></use>
                <g>
                    <use xlink:href="#a20sbHp4Lr" opacity="1" fill-opacity="0" stroke="#000000" stroke-width="1" stroke-opacity="0"></use>
                </g>
            </g>
            <g>
                <use xlink:href="#jYtFkhgbZ" opacity="1" fill="#ffffff" fill-opacity="1"></use>
                <g>
                    <use xlink:href="#jYtFkhgbZ" opacity="1" fill-opacity="0" stroke="#000000" stroke-width="1" stroke-opacity="0"></use>
                </g>
            </g>
            <g>
                <use xlink:href="#i3bbSnTMj4" opacity="1" fill="#d8dde7" fill-opacity="1"></use>
            </g>
            <g>
                <use xlink:href="#daCWHykqk" opacity="1" fill="#d8dde7" fill-opacity="1"></use>
            </g>
            <g>
                <use xlink:href="#c9JOz4Vjv" opacity="1" fill="#d8dde7" fill-opacity="1"></use>
                <g>
                    <use xlink:href="#c9JOz4Vjv" opacity="1" fill-opacity="0" stroke="#000000" stroke-width="1" stroke-opacity="0"></use>
                </g>
            </g>
            <g>
                <use xlink:href="#a290Uiw5o2" opacity="1" fill="#d8dde7" fill-opacity="1"></use>
                <g>
                    <use xlink:href="#a290Uiw5o2" opacity="1" fill-opacity="0" stroke="#000000" stroke-width="1" stroke-opacity="0"></use>
                </g>
            </g>
            <g>
                <use xlink:href="#bPOCr0qD3" opacity="1" fill="#d8dde7" fill-opacity="1"></use>
                <g>
                    <use xlink:href="#bPOCr0qD3" opacity="1" fill-opacity="0" stroke="#000000" stroke-width="1" stroke-opacity="0"></use>
                </g>
            </g>
            <g>
                <use xlink:href="#a1S2ZwWz81" opacity="1" fill="#ffffff" fill-opacity="1"></use>
            </g>
            <g>
                <use xlink:href="#aYX5R4c94" opacity="1" fill="#ffffff" fill-opacity="1"></use>
            </g>
        </g>
    </g>
</svg>