<?xml version="1.0" encoding="UTF-8" standalone="no"?>
<!DOCTYPE svg PUBLIC "//W3C//DTD SVG 1.1//EN" "http://www.w3.org/Graphics/SVG/1.1/DTD/svg11.dtd">
<svg version="1.1" xmlns="http://www.w3.org/2000/svg" xmlns:xlink="http://www.w3.org/1999/xlink" preserveAspectRatio="xMidYMid meet" viewBox="0 0 640 640" width="640" height="640"><defs><path d="M646.78 139.67L646.78 221.86L0 221.86L0 139.67L646.78 139.67Z" id="caVzuyHH"></path><path d="M640 0L640 128L0 128L0 0L640 0Z" id="a44LS4m1i"></path><path d="M0 583.53L0 640L640 640L640 583.53L0 583.53Z" id="b1phfgcSbc"></path><path d="M651.95 234.87L651.95 339.94L-1.61 339.94L-1.61 234.87L651.95 234.87Z" id="b2HchtlFyA"></path><path d="M609.1 201.25L628.47 181.29L609.1 161.32L609.1 173.98L588.54 173.98L588.54 188.63L609.1 188.63L609.1 201.25Z" id="g5ClR0tRt8"></path><path d="M34.09 161.32L14.71 181.29L34.09 201.25L34.09 188.6L54.65 188.6L54.65 173.95L34.09 173.95L34.09 161.32Z" id="f3A59eBstQ"></path><path d="M31.31 265.05L11.93 285.02L31.31 304.98L31.31 292.33L51.86 292.33L51.86 277.68L31.31 277.68L31.31 265.05Z" id="b5NqrobLN"></path><path d="M605.47 304.98L624.85 285.02L605.47 265.05L605.47 277.71L584.92 277.71L584.92 292.36L605.47 292.36L605.47 304.98Z" id="a7AiWKiBN"></path><path d="M644.78 247.36L644.78 327.01L434.78 327.01L434.78 247.36L644.78 247.36Z" id="b31hMVr39V"></path><path d="M409.88 247.36L409.88 327.01L-9.44 327.01L-9.44 247.36L409.88 247.36Z" id="h16qn3Cj93"></path><path d="M605.47 305.61L624.85 285.65L605.47 265.68L605.47 278.34L584.92 278.34L584.92 292.99L605.47 292.99L605.47 305.61Z" id="c1htNloey"></path><path d="M31.31 265.68L11.93 285.65L31.31 305.61L31.31 292.95L51.86 292.95L51.86 278.3L31.31 278.3L31.31 265.68Z" id="cy6X7KfNZ"></path><path d="M645.17 353.24L645.17 442.22L-1.61 442.22L-1.61 353.24L645.17 353.24Z" id="dbzF4wrHi3"></path><path d="M409.88 455.43L409.88 572.37L-2.01 572.37L-2.01 455.43L409.88 455.43Z" id="gDGjARhKH"></path><path d="M843.61 455.43L843.61 572.37L434.78 572.37L434.78 455.43L843.61 455.43Z" id="a9aPKONxv"></path></defs><g><g><g><use xlink:href="#caVzuyHH" opacity="1" fill="#d8dde7" fill-opacity="1"></use><g><use xlink:href="#caVzuyHH" opacity="1" fill-opacity="0" stroke="#000000" stroke-width="1" stroke-opacity="0"></use></g></g><g><use xlink:href="#a44LS4m1i" opacity="1" fill="#d8dde7" fill-opacity="1"></use><g><use xlink:href="#a44LS4m1i" opacity="1" fill-opacity="0" stroke="#000000" stroke-width="1" stroke-opacity="0"></use></g></g><g><use xlink:href="#b1phfgcSbc" opacity="1" fill="#d8dde7" fill-opacity="1"></use><g><use xlink:href="#b1phfgcSbc" opacity="1" fill-opacity="0" stroke="#000000" stroke-width="1" stroke-opacity="0"></use></g></g><g><use xlink:href="#b2HchtlFyA" opacity="1" fill="#d8dde7" fill-opacity="1"></use><g><use xlink:href="#b2HchtlFyA" opacity="1" fill-opacity="0" stroke="#000000" stroke-width="1" stroke-opacity="0"></use></g></g><g><use xlink:href="#g5ClR0tRt8" opacity="1" fill="#ffffff" fill-opacity="1"></use></g><g><use xlink:href="#f3A59eBstQ" opacity="1" fill="#ffffff" fill-opacity="1"></use></g><g><use xlink:href="#b5NqrobLN" opacity="1" fill="#ffffff" fill-opacity="1"></use></g><g><use xlink:href="#a7AiWKiBN" opacity="1" fill="#ffffff" fill-opacity="1"></use></g><g><use xlink:href="#b31hMVr39V" opacity="1" fill="#ffffff" fill-opacity="1"></use><g><use xlink:href="#b31hMVr39V" opacity="1" fill-opacity="0" stroke="#000000" stroke-width="1" stroke-opacity="0"></use></g></g><g><use xlink:href="#h16qn3Cj93" opacity="1" fill="#ffffff" fill-opacity="1"></use><g><use xlink:href="#h16qn3Cj93" opacity="1" fill-opacity="0" stroke="#000000" stroke-width="1" stroke-opacity="0"></use></g></g><g><use xlink:href="#c1htNloey" opacity="1" fill="#d8dde7" fill-opacity="1"></use></g><g><use xlink:href="#cy6X7KfNZ" opacity="1" fill="#d8dde7" fill-opacity="1"></use></g><g><use xlink:href="#dbzF4wrHi3" opacity="1" fill="#d8dde7" fill-opacity="1"></use><g><use xlink:href="#dbzF4wrHi3" opacity="1" fill-opacity="0" stroke="#000000" stroke-width="1" stroke-opacity="0"></use></g></g><g><use xlink:href="#gDGjARhKH" opacity="1" fill="#d8dde7" fill-opacity="1"></use><g><use xlink:href="#gDGjARhKH" opacity="1" fill-opacity="0" stroke="#000000" stroke-width="1" stroke-opacity="0"></use></g></g><g><use xlink:href="#a9aPKONxv" opacity="1" fill="#d8dde7" fill-opacity="1"></use><g><use xlink:href="#a9aPKONxv" opacity="1" fill-opacity="0" stroke="#000000" stroke-width="1" stroke-opacity="0"></use></g></g></g></g></svg>