<?xml version="1.0" encoding="UTF-8" standalone="no"?>
<!DOCTYPE svg PUBLIC "//W3C//DTD SVG 1.1//EN" "http://www.w3.org/Graphics/SVG/1.1/DTD/svg11.dtd">
<svg version="1.1" xmlns="http://www.w3.org/2000/svg" xmlns:xlink="http://www.w3.org/1999/xlink" preserveAspectRatio="xMidYMid meet" viewBox="0 0 640 640" width="640" height="640"><defs><path d="M646.78 139.67L646.78 234.57L0 234.57L0 139.67L646.78 139.67Z" id="c5vXKMQIhy"></path><path d="M640 0L640 128L0 128L0 0L640 0Z" id="a44LS4m1i"></path><path d="M0 583.53L0 640L640 640L640 583.53L0 583.53Z" id="b1phfgcSbc"></path><path d="M646.78 248.9L646.78 335.33L0 335.33L0 248.9L646.78 248.9Z" id="i1yhluFl9h"></path><path d="M653.56 353.73L653.56 448.64L0 448.64L0 353.73L653.56 353.73Z" id="ibFVw0ixOL"></path><path d="M412.89 461.43L412.89 569.05L-6.43 569.05L-6.43 461.43L412.89 461.43Z" id="f1CB3AS9iT"></path><path d="M643.89 461.43L643.89 569.05L433.89 569.05L433.89 461.43L643.89 461.43Z" id="a3mRjKUa4t"></path><path d="M608.25 205.25L627.63 185.29L608.25 165.32L608.25 177.98L587.7 177.98L587.7 192.63L608.25 192.63L608.25 205.25Z" id="cpl5PqZwl"></path><path d="M34.09 165.32L14.71 185.29L34.09 205.25L34.09 192.6L54.65 192.6L54.65 177.95L34.09 177.95L34.09 165.32Z" id="eB94y0Fnd"></path><path d="M34.09 381.46L14.71 401.42L34.09 421.39L34.09 408.73L54.65 408.73L54.65 394.08L34.09 394.08L34.09 381.46Z" id="a2v13GHkb2"></path><path d="M608.25 421.39L627.63 401.42L608.25 381.46L608.25 394.12L587.7 394.12L587.7 408.77L608.25 408.77L608.25 421.39Z" id="a1UGUqQz5b"></path></defs><g><g><g><use xlink:href="#c5vXKMQIhy" opacity="1" fill="#d8dde7" fill-opacity="1"></use><g><use xlink:href="#c5vXKMQIhy" opacity="1" fill-opacity="0" stroke="#000000" stroke-width="1" stroke-opacity="0"></use></g></g><g><use xlink:href="#a44LS4m1i" opacity="1" fill="#d8dde7" fill-opacity="1"></use><g><use xlink:href="#a44LS4m1i" opacity="1" fill-opacity="0" stroke="#000000" stroke-width="1" stroke-opacity="0"></use></g></g><g><use xlink:href="#b1phfgcSbc" opacity="1" fill="#d8dde7" fill-opacity="1"></use><g><use xlink:href="#b1phfgcSbc" opacity="1" fill-opacity="0" stroke="#000000" stroke-width="1" stroke-opacity="0"></use></g></g><g><use xlink:href="#i1yhluFl9h" opacity="1" fill="#d8dde7" fill-opacity="1"></use><g><use xlink:href="#i1yhluFl9h" opacity="1" fill-opacity="0" stroke="#000000" stroke-width="1" stroke-opacity="0"></use></g></g><g><use xlink:href="#ibFVw0ixOL" opacity="1" fill="#d8dde7" fill-opacity="1"></use><g><use xlink:href="#ibFVw0ixOL" opacity="1" fill-opacity="0" stroke="#000000" stroke-width="1" stroke-opacity="0"></use></g></g><g><use xlink:href="#f1CB3AS9iT" opacity="1" fill="#d8dde7" fill-opacity="1"></use><g><use xlink:href="#f1CB3AS9iT" opacity="1" fill-opacity="0" stroke="#000000" stroke-width="1" stroke-opacity="0"></use></g></g><g><use xlink:href="#a3mRjKUa4t" opacity="1" fill="#d8dde7" fill-opacity="1"></use><g><use xlink:href="#a3mRjKUa4t" opacity="1" fill-opacity="0" stroke="#000000" stroke-width="1" stroke-opacity="0"></use></g></g><g><use xlink:href="#cpl5PqZwl" opacity="1" fill="#ffffff" fill-opacity="1"></use></g><g><use xlink:href="#eB94y0Fnd" opacity="1" fill="#ffffff" fill-opacity="1"></use></g><g><use xlink:href="#a2v13GHkb2" opacity="1" fill="#ffffff" fill-opacity="1"></use></g><g><use xlink:href="#a1UGUqQz5b" opacity="1" fill="#ffffff" fill-opacity="1"></use></g></g></g></svg>